<svg width="40" height="40" viewBox="0 0 40 40" fill="none" xmlns="http://www.w3.org/2000/svg">
<path fill-rule="evenodd" clip-rule="evenodd" d="M20 40C31.0457 40 40 31.0457 40 20C40 8.9543 31.0457 0 20 0C8.9543 0 0 8.9543 0 20C0 31.0457 8.9543 40 20 40ZM13 14.0769C13 13.4822 13.4822 13 14.0769 13H17.7972C18.392 13 18.8741 13.4822 18.8741 14.0769V17.7972C18.8741 18.392 18.392 18.8741 17.7972 18.8741H14.0769C13.4822 18.8741 13 18.392 13 17.7972V14.0769ZM13 22.2028C13 21.608 13.4822 21.1259 14.0769 21.1259H17.7972C18.392 21.1259 18.8741 21.608 18.8741 22.2028V25.9231C18.8741 26.5178 18.392 27 17.7972 27H14.0769C13.4822 27 13 26.5178 13 25.9231V22.2028ZM21.1259 14.0769C21.1259 13.4822 21.608 13 22.2028 13H25.9231C26.5178 13 27 13.4822 27 14.0769V17.7972C27 18.392 26.5178 18.8741 25.9231 18.8741H22.2028C21.608 18.8741 21.1259 18.392 21.1259 17.7972V14.0769ZM21.1259 22.2028C21.1259 21.608 21.608 21.1259 22.2028 21.1259H25.9231C26.5178 21.1259 27 21.608 27 22.2028V25.9231C27 26.5178 26.5178 27 25.9231 27H22.2028C21.608 27 21.1259 26.5178 21.1259 25.9231V22.2028Z" fill="white"/>
</svg>
